<?xml version="1.0" encoding="utf-8"?>
<!-- Generator: Adobe Illustrator 25.2.0, SVG Export Plug-In . SVG Version: 6.00 Build 0)  -->
<svg version="1.1" id="Layer_1" xmlns="http://www.w3.org/2000/svg" xmlns:xlink="http://www.w3.org/1999/xlink" x="0px" y="0px"
	 viewBox="0 0 158.25 46" style="enable-background:new 0 0 158.25 46;" xml:space="preserve">
<style type="text/css">
	.st0{fill:#939AC0;}
</style>
<g>
	<g>
		<g>
			<g>
				<path class="st0" d="M68.74,23.56c-0.8,1.45-1.95,2.58-3.46,3.39c-1.5,0.81-3.27,1.22-5.31,1.22h-7.21V9.07h7.21
					c2.05,0,3.83,0.4,5.32,1.19c1.49,0.79,2.64,1.91,3.44,3.35c0.8,1.44,1.2,3.1,1.2,4.97C69.94,20.45,69.54,22.11,68.74,23.56z
					 M63.77,22.61c1-0.95,1.5-2.3,1.5-4.02c0-1.73-0.5-3.07-1.5-4.02c-1-0.95-2.4-1.43-4.2-1.43h-2.19v10.91h2.19
					C61.37,24.04,62.77,23.56,63.77,22.61z"/>
				<path class="st0" d="M86.74,21.47H76.29c0.05,1.13,0.34,1.95,0.86,2.44c0.52,0.5,1.19,0.74,2,0.74c0.68,0,1.25-0.17,1.7-0.51
					c0.45-0.34,0.75-0.78,0.89-1.32h4.89c-0.2,1.06-0.63,2.01-1.3,2.85c-0.67,0.84-1.51,1.49-2.54,1.97
					c-1.03,0.48-2.17,0.72-3.43,0.72c-1.48,0-2.79-0.31-3.93-0.93c-1.14-0.62-2.04-1.52-2.69-2.69c-0.65-1.17-0.97-2.54-0.97-4.11
					c0-1.58,0.32-2.96,0.96-4.12c0.64-1.16,1.53-2.05,2.69-2.67c1.15-0.62,2.47-0.93,3.94-0.93c1.49,0,2.81,0.31,3.94,0.92
					c1.13,0.61,2.01,1.47,2.63,2.58c0.62,1.11,0.93,2.38,0.93,3.82C86.88,20.61,86.83,21.02,86.74,21.47z M81.41,17.3
					c-0.55-0.5-1.23-0.74-2.04-0.74c-0.85,0-1.55,0.25-2.11,0.76c-0.56,0.5-0.87,1.24-0.95,2.22h5.89
					C82.22,18.54,81.96,17.79,81.41,17.3z"/>
				<path class="st0" d="M104.05,10.8c1.59,1.28,2.62,3.01,3.09,5.19h-4.89c-0.36-0.88-0.91-1.58-1.66-2.08
					c-0.75-0.5-1.63-0.76-2.66-0.76c-1.35,0-2.44,0.5-3.27,1.49c-0.83,0.99-1.24,2.31-1.24,3.97c0,1.66,0.41,2.98,1.24,3.96
					c0.83,0.98,1.92,1.47,3.27,1.47c1.03,0,1.91-0.25,2.66-0.76c0.75-0.5,1.3-1.19,1.66-2.05h4.89c-0.47,2.16-1.5,3.89-3.09,5.17
					c-1.59,1.29-3.61,1.93-6.04,1.93c-1.86,0-3.48-0.41-4.89-1.23c-1.41-0.82-2.49-1.97-3.26-3.44c-0.77-1.48-1.15-3.16-1.15-5.05
					c0-1.89,0.38-3.57,1.15-5.05c0.76-1.48,1.85-2.62,3.26-3.44c1.4-0.82,3.03-1.23,4.89-1.23C100.44,8.88,102.45,9.52,104.05,10.8z
					"/>
				<path class="st0" d="M118.43,13.69c0.83,0.52,1.44,1.23,1.84,2.13V13.1h4.59v15.07h-4.59v-2.73c-0.4,0.9-1.01,1.61-1.84,2.13
					c-0.83,0.52-1.82,0.78-2.97,0.78c-1.24,0-2.36-0.31-3.34-0.93c-0.98-0.62-1.76-1.52-2.32-2.69c-0.57-1.17-0.85-2.54-0.85-4.11
					c0-1.58,0.28-2.96,0.85-4.12c0.57-1.16,1.34-2.05,2.32-2.67c0.98-0.62,2.09-0.93,3.34-0.93
					C116.61,12.91,117.6,13.17,118.43,13.69z M114.55,17.93c-0.6,0.65-0.91,1.55-0.91,2.7s0.3,2.05,0.91,2.7
					c0.6,0.65,1.4,0.97,2.39,0.97c0.97,0,1.77-0.33,2.39-1c0.62-0.67,0.93-1.56,0.93-2.67c0-1.13-0.31-2.03-0.93-2.69
					s-1.42-0.99-2.39-0.99C115.95,16.96,115.16,17.28,114.55,17.93z"/>
				<path class="st0" d="M138.11,14.34c1.14,0.95,1.86,2.22,2.15,3.78h-4.32c-0.13-0.61-0.41-1.09-0.85-1.45
					c-0.44-0.35-1-0.53-1.66-0.53c-0.52,0-0.92,0.11-1.19,0.34c-0.27,0.23-0.41,0.54-0.41,0.96c0,0.47,0.25,0.82,0.74,1.05
					c0.5,0.23,1.27,0.47,2.34,0.7c1.15,0.27,2.1,0.54,2.84,0.82c0.74,0.28,1.38,0.73,1.92,1.36c0.54,0.63,0.81,1.48,0.81,2.54
					c0,0.86-0.23,1.63-0.7,2.3c-0.47,0.67-1.14,1.19-2.03,1.57c-0.88,0.38-1.93,0.57-3.13,0.57c-2.04,0-3.67-0.45-4.89-1.35
					c-1.23-0.9-1.97-2.19-2.24-3.86h4.46c0.07,0.65,0.35,1.14,0.82,1.49c0.48,0.34,1.09,0.51,1.85,0.51c0.52,0,0.92-0.12,1.19-0.36
					c0.27-0.24,0.41-0.56,0.41-0.96c0-0.52-0.25-0.9-0.74-1.12c-0.5-0.22-1.3-0.46-2.42-0.72c-1.12-0.23-2.04-0.49-2.76-0.76
					c-0.72-0.27-1.34-0.71-1.86-1.31c-0.52-0.6-0.78-1.43-0.78-2.47c0-1.35,0.51-2.44,1.54-3.28c1.03-0.84,2.48-1.26,4.35-1.26
					C135.44,12.91,136.97,13.38,138.11,14.34z"/>
				<path class="st0" d="M156.72,14.66c1.02,1.15,1.53,2.74,1.53,4.75v8.75h-4.62v-8.21c0-1.01-0.27-1.8-0.8-2.36
					c-0.53-0.57-1.24-0.85-2.12-0.85c-0.94,0-1.68,0.3-2.23,0.89c-0.55,0.59-0.82,1.44-0.82,2.54v8h-4.62V8.18h4.62v7.67
					c0.43-0.9,1.08-1.61,1.93-2.13c0.86-0.52,1.86-0.78,3.01-0.78C154.33,12.93,155.7,13.51,156.72,14.66z"/>
			</g>
			<g>
				<path class="st0" d="M57.8,31.98v0.76h-2.05v6.49h-0.94v-6.49h-2.05v-0.76H57.8z"/>
				<path class="st0" d="M60.47,33.81c0.36-0.22,0.78-0.32,1.28-0.32v1.02h-0.29c-0.53,0-0.96,0.14-1.3,0.41
					c-0.34,0.27-0.5,0.72-0.5,1.34v2.97h-0.94v-5.65h0.94v1.14C59.84,34.33,60.11,34.03,60.47,33.81z"/>
				<path class="st0" d="M66.38,33.92c0.38,0.27,0.65,0.64,0.8,1.1v-1.44h0.94v5.65h-0.94v-1.44c-0.15,0.46-0.42,0.83-0.8,1.1
					c-0.38,0.27-0.85,0.41-1.39,0.41c-0.5,0-0.95-0.12-1.34-0.35c-0.39-0.23-0.7-0.57-0.92-1c-0.22-0.44-0.33-0.95-0.33-1.54
					s0.11-1.1,0.33-1.54c0.22-0.44,0.53-0.77,0.92-1.01c0.39-0.23,0.84-0.35,1.34-0.35C65.54,33.51,66,33.65,66.38,33.92z
					 M63.87,34.9c-0.35,0.37-0.52,0.87-0.52,1.52c0,0.64,0.17,1.15,0.52,1.52c0.35,0.37,0.81,0.55,1.38,0.55
					c0.37,0,0.7-0.09,0.99-0.26c0.29-0.17,0.52-0.41,0.68-0.73c0.16-0.31,0.25-0.67,0.25-1.09c0-0.41-0.08-0.78-0.25-1.09
					c-0.16-0.32-0.39-0.56-0.68-0.73c-0.29-0.17-0.62-0.25-0.99-0.25C64.68,34.34,64.22,34.53,63.87,34.9z"/>
				<path class="st0" d="M74.18,34.12c0.4,0.42,0.61,1.03,0.61,1.83v3.28h-0.94v-3.2c0-0.56-0.14-1-0.43-1.3
					c-0.29-0.3-0.68-0.45-1.17-0.45c-0.52,0-0.93,0.17-1.24,0.5c-0.31,0.33-0.46,0.82-0.46,1.46v2.99h-0.94v-5.65h0.94v1.34
					c0.14-0.46,0.4-0.81,0.77-1.06c0.37-0.25,0.79-0.37,1.27-0.37C73.24,33.49,73.78,33.7,74.18,34.12z"/>
				<path class="st0" d="M79.54,34.01c0.39,0.33,0.62,0.78,0.7,1.34h-0.9c-0.04-0.34-0.18-0.61-0.42-0.83
					c-0.24-0.22-0.55-0.32-0.95-0.32c-0.34,0-0.6,0.08-0.79,0.24c-0.19,0.16-0.28,0.38-0.28,0.65c0,0.21,0.06,0.37,0.19,0.5
					c0.13,0.13,0.29,0.22,0.47,0.29c0.19,0.06,0.45,0.14,0.78,0.21c0.42,0.1,0.76,0.19,1.01,0.29c0.26,0.1,0.48,0.26,0.66,0.48
					c0.18,0.22,0.27,0.52,0.27,0.89c0,0.46-0.17,0.83-0.52,1.12c-0.35,0.29-0.81,0.43-1.38,0.43c-0.67,0-1.22-0.16-1.65-0.48
					c-0.43-0.32-0.68-0.77-0.75-1.35h0.91c0.03,0.34,0.18,0.62,0.45,0.83c0.26,0.21,0.61,0.32,1.04,0.32c0.32,0,0.57-0.08,0.76-0.25
					c0.18-0.16,0.27-0.38,0.27-0.65c0-0.22-0.07-0.39-0.2-0.52c-0.13-0.13-0.29-0.23-0.48-0.3s-0.46-0.14-0.79-0.22
					c-0.42-0.1-0.75-0.19-1-0.29c-0.25-0.1-0.46-0.25-0.64-0.46c-0.17-0.21-0.26-0.49-0.26-0.85c0-0.47,0.17-0.86,0.52-1.15
					c0.35-0.29,0.83-0.44,1.43-0.44C78.64,33.51,79.15,33.68,79.54,34.01z"/>
				<path class="st0" d="M86.01,33.86c0.39,0.23,0.7,0.57,0.92,1.01c0.22,0.44,0.33,0.95,0.33,1.54s-0.11,1.1-0.33,1.54
					c-0.22,0.44-0.53,0.77-0.92,1c-0.39,0.23-0.84,0.35-1.34,0.35c-0.55,0-1.01-0.14-1.39-0.42c-0.38-0.28-0.64-0.64-0.79-1.1v4.12
					h-0.94v-8.33h0.94v1.44c0.14-0.45,0.41-0.82,0.79-1.1c0.38-0.28,0.85-0.42,1.39-0.42C85.17,33.51,85.62,33.63,86.01,33.86z
					 M83.41,34.6c-0.3,0.17-0.53,0.41-0.69,0.73c-0.16,0.32-0.25,0.68-0.25,1.09c0,0.41,0.08,0.77,0.25,1.09
					c0.16,0.31,0.39,0.55,0.69,0.73c0.29,0.17,0.62,0.26,0.99,0.26c0.58,0,1.05-0.18,1.39-0.55c0.35-0.37,0.52-0.87,0.52-1.52
					c0-0.65-0.17-1.15-0.52-1.52c-0.35-0.37-0.81-0.55-1.39-0.55C84.04,34.34,83.71,34.43,83.41,34.6z"/>
				<path class="st0" d="M92.2,33.92c0.38,0.27,0.65,0.64,0.8,1.1v-1.44h0.94v5.65h-0.94v-1.44c-0.15,0.46-0.42,0.83-0.8,1.1
					c-0.38,0.27-0.85,0.41-1.39,0.41c-0.5,0-0.95-0.12-1.34-0.35c-0.39-0.23-0.7-0.57-0.92-1c-0.22-0.44-0.33-0.95-0.33-1.54
					s0.11-1.1,0.33-1.54c0.22-0.44,0.53-0.77,0.92-1.01c0.39-0.23,0.84-0.35,1.34-0.35C91.35,33.51,91.82,33.65,92.2,33.92z
					 M89.69,34.9c-0.35,0.37-0.52,0.87-0.52,1.52c0,0.64,0.17,1.15,0.52,1.52c0.35,0.37,0.81,0.55,1.38,0.55
					c0.37,0,0.7-0.09,0.99-0.26c0.29-0.17,0.52-0.41,0.68-0.73c0.16-0.31,0.25-0.67,0.25-1.09c0-0.41-0.08-0.78-0.25-1.09
					c-0.16-0.32-0.39-0.56-0.68-0.73c-0.29-0.17-0.62-0.25-0.99-0.25C90.49,34.34,90.03,34.53,89.69,34.9z"/>
				<path class="st0" d="M97.17,33.81c0.36-0.22,0.78-0.32,1.28-0.32v1.02h-0.29c-0.53,0-0.96,0.14-1.3,0.41
					c-0.34,0.27-0.5,0.72-0.5,1.34v2.97h-0.94v-5.65h0.94v1.14C96.55,34.33,96.82,34.03,97.17,33.81z"/>
				<path class="st0" d="M104.53,36.61h-4.52c0.02,0.64,0.2,1.13,0.55,1.45c0.35,0.32,0.77,0.48,1.27,0.48
					c0.45,0,0.83-0.11,1.14-0.34s0.49-0.54,0.56-0.92h1c-0.07,0.39-0.22,0.74-0.46,1.05c-0.24,0.31-0.54,0.55-0.92,0.72
					c-0.38,0.17-0.8,0.26-1.28,0.26c-0.54,0-1.02-0.12-1.44-0.35c-0.42-0.23-0.75-0.57-0.98-1c-0.24-0.44-0.36-0.95-0.36-1.54
					s0.12-1.1,0.36-1.54c0.24-0.44,0.56-0.77,0.98-1.01c0.42-0.23,0.9-0.35,1.44-0.35c0.55,0,1.03,0.12,1.44,0.35
					c0.41,0.23,0.72,0.55,0.94,0.94c0.22,0.39,0.32,0.82,0.32,1.3C104.57,36.29,104.56,36.46,104.53,36.61z M103.42,35.11
					c-0.16-0.28-0.37-0.49-0.65-0.63c-0.27-0.14-0.57-0.21-0.9-0.21c-0.51,0-0.95,0.16-1.3,0.48c-0.35,0.32-0.54,0.79-0.57,1.41
					h3.61C103.65,35.74,103.58,35.39,103.42,35.11z"/>
				<path class="st0" d="M110.37,34.12c0.4,0.42,0.61,1.03,0.61,1.83v3.28h-0.94v-3.2c0-0.56-0.14-1-0.43-1.3
					c-0.29-0.3-0.68-0.45-1.17-0.45c-0.52,0-0.93,0.17-1.24,0.5c-0.31,0.33-0.46,0.82-0.46,1.46v2.99h-0.94v-5.65h0.94v1.34
					c0.14-0.46,0.4-0.81,0.77-1.06c0.37-0.25,0.79-0.37,1.27-0.37C109.43,33.49,109.96,33.7,110.37,34.12z"/>
				<path class="st0" d="M115.11,38.41v0.82h-0.7c-0.58,0-1.01-0.14-1.29-0.41c-0.29-0.27-0.43-0.73-0.43-1.38V34.4h-0.84v-0.81
					h0.84v-1.41h0.95v1.41h1.46v0.81h-1.46v3.07c0,0.36,0.07,0.61,0.2,0.75c0.13,0.13,0.37,0.2,0.69,0.2H115.11z"/>
				<path class="st0" d="M117.19,31.62v7.62h-0.94v-7.62H117.19z"/>
				<path class="st0" d="M119.09,33.58l1.83,4.45l1.7-4.45h1.04l-3.36,8.33h-1.06l1.17-2.77l-2.38-5.56H119.09z"/>
				<path class="st0" d="M131.4,38.31c-0.16,0.3-0.41,0.54-0.75,0.72c-0.34,0.19-0.75,0.28-1.25,0.28c-0.48,0-0.91-0.09-1.28-0.26
					c-0.37-0.17-0.67-0.42-0.9-0.72c-0.22-0.31-0.35-0.65-0.39-1.04h1c0.02,0.21,0.09,0.41,0.21,0.6c0.12,0.2,0.29,0.36,0.52,0.48
					c0.22,0.13,0.49,0.19,0.81,0.19c0.41,0,0.73-0.11,0.95-0.33c0.22-0.22,0.33-0.5,0.33-0.84c0-0.3-0.08-0.54-0.23-0.72
					c-0.15-0.19-0.34-0.33-0.57-0.44c-0.23-0.11-0.54-0.22-0.93-0.34c-0.46-0.15-0.83-0.29-1.11-0.43s-0.51-0.33-0.71-0.6
					c-0.2-0.27-0.29-0.62-0.29-1.06c0-0.38,0.09-0.71,0.27-1c0.18-0.29,0.44-0.51,0.78-0.67c0.34-0.16,0.74-0.24,1.2-0.24
					c0.71,0,1.28,0.17,1.7,0.52c0.42,0.35,0.66,0.79,0.73,1.32h-1.01c-0.06-0.29-0.2-0.54-0.44-0.76c-0.24-0.22-0.57-0.33-0.98-0.33
					c-0.38,0-0.68,0.1-0.91,0.29c-0.23,0.19-0.34,0.47-0.34,0.83c0,0.28,0.07,0.51,0.22,0.68c0.15,0.18,0.33,0.31,0.55,0.41
					c0.22,0.1,0.52,0.21,0.91,0.33c0.47,0.15,0.84,0.3,1.13,0.43c0.29,0.14,0.53,0.34,0.73,0.62c0.2,0.28,0.3,0.65,0.3,1.11
					C131.64,37.69,131.56,38.01,131.4,38.31z"/>
				<path class="st0" d="M135.59,38.41v0.82h-0.7c-0.58,0-1.01-0.14-1.29-0.41c-0.29-0.27-0.43-0.73-0.43-1.38V34.4h-0.84v-0.81
					h0.84v-1.41h0.95v1.41h1.46v0.81h-1.46v3.07c0,0.36,0.07,0.61,0.2,0.75c0.13,0.13,0.37,0.2,0.69,0.2H135.59z"/>
				<path class="st0" d="M140.45,33.92c0.38,0.27,0.65,0.64,0.8,1.1v-1.44h0.94v5.65h-0.94v-1.44c-0.15,0.46-0.42,0.83-0.8,1.1
					c-0.38,0.27-0.85,0.41-1.39,0.41c-0.5,0-0.95-0.12-1.34-0.35c-0.39-0.23-0.7-0.57-0.92-1c-0.22-0.44-0.33-0.95-0.33-1.54
					s0.11-1.1,0.33-1.54c0.22-0.44,0.53-0.77,0.92-1.01c0.39-0.23,0.84-0.35,1.34-0.35C139.6,33.51,140.07,33.65,140.45,33.92z
					 M137.94,34.9c-0.35,0.37-0.52,0.87-0.52,1.52c0,0.64,0.17,1.15,0.52,1.52c0.35,0.37,0.81,0.55,1.38,0.55
					c0.37,0,0.7-0.09,0.99-0.26c0.29-0.17,0.52-0.41,0.68-0.73c0.16-0.31,0.25-0.67,0.25-1.09c0-0.41-0.08-0.78-0.25-1.09
					c-0.16-0.32-0.39-0.56-0.68-0.73c-0.29-0.17-0.62-0.25-0.99-0.25C138.74,34.34,138.28,34.53,137.94,34.9z"/>
				<path class="st0" d="M148.13,33.86c0.39,0.23,0.7,0.57,0.92,1.01c0.22,0.44,0.33,0.95,0.33,1.54s-0.11,1.1-0.33,1.54
					c-0.22,0.44-0.53,0.77-0.92,1c-0.39,0.23-0.84,0.35-1.34,0.35c-0.55,0-1.01-0.14-1.39-0.42c-0.38-0.28-0.64-0.64-0.79-1.1v1.44
					h-0.94v-7.62h0.94v3.41c0.14-0.45,0.41-0.82,0.79-1.1c0.38-0.28,0.85-0.42,1.39-0.42C147.29,33.51,147.74,33.63,148.13,33.86z
					 M145.54,34.6c-0.3,0.17-0.53,0.41-0.69,0.73c-0.16,0.32-0.25,0.68-0.25,1.09c0,0.41,0.08,0.77,0.25,1.09
					c0.16,0.31,0.39,0.55,0.69,0.73c0.29,0.17,0.62,0.26,0.99,0.26c0.58,0,1.05-0.18,1.39-0.55c0.35-0.37,0.52-0.87,0.52-1.52
					c0-0.65-0.17-1.15-0.52-1.52c-0.35-0.37-0.81-0.55-1.39-0.55C146.16,34.34,145.83,34.43,145.54,34.6z"/>
				<path class="st0" d="M151.55,31.62v7.62h-0.94v-7.62H151.55z"/>
				<path class="st0" d="M158.21,36.61h-4.52c0.02,0.64,0.2,1.13,0.55,1.45c0.35,0.32,0.77,0.48,1.27,0.48
					c0.45,0,0.83-0.11,1.14-0.34c0.31-0.23,0.49-0.54,0.56-0.92h1c-0.07,0.39-0.22,0.74-0.46,1.05c-0.24,0.31-0.54,0.55-0.92,0.72
					c-0.38,0.17-0.8,0.26-1.28,0.26c-0.54,0-1.02-0.12-1.44-0.35c-0.42-0.23-0.75-0.57-0.98-1c-0.24-0.44-0.36-0.95-0.36-1.54
					s0.12-1.1,0.36-1.54c0.24-0.44,0.56-0.77,0.98-1.01c0.42-0.23,0.9-0.35,1.44-0.35c0.55,0,1.03,0.12,1.44,0.35
					c0.41,0.23,0.72,0.55,0.94,0.94c0.22,0.39,0.32,0.82,0.32,1.3C158.25,36.29,158.23,36.46,158.21,36.61z M157.09,35.11
					c-0.16-0.28-0.37-0.49-0.65-0.63c-0.27-0.14-0.57-0.21-0.9-0.21c-0.51,0-0.95,0.16-1.3,0.48c-0.35,0.32-0.54,0.79-0.57,1.41
					h3.61C157.32,35.74,157.25,35.39,157.09,35.11z"/>
			</g>
		</g>
		<path class="st0" d="M23,1.84c11.67,0,21.16,9.49,21.16,21.16c0,11.67-9.49,21.16-21.16,21.16S1.84,34.67,1.84,23
			C1.84,11.33,11.33,1.84,23,1.84 M23,0C10.3,0,0,10.3,0,23s10.3,23,23,23s23-10.3,23-23S35.7,0,23,0L23,0z"/>
		<path class="st0" d="M35.12,30.36l-3.94-8.04c-0.19-0.38-0.73-0.38-0.92,0l-1.32,2.7c-0.15,0.3-0.15,0.65,0,0.95l2.48,5.05
			c0.13,0.26-0.06,0.57-0.35,0.57h-7.23l7.95-16.23c0.16-0.34,0.03-0.74-0.31-0.91c-0.34-0.16-0.74-0.03-0.91,0.31l-1.54,3.15
			l-4.39-8.96c-0.66-1.36-2.6-1.36-3.26,0L10.88,30.36c-0.59,1.21,0.29,2.62,1.63,2.62h6.66c0.39,0,0.7-0.31,0.7-0.7v0
			c0-0.39-0.31-0.7-0.7-0.7h-6.76c-0.29,0-0.48-0.3-0.35-0.57l9.33-19.04c0.14-0.29,0.56-0.29,0.71,0l4.92,10.04l-6.93,14.15
			c-0.16,0.34-0.03,0.74,0.31,0.91c0.1,0.05,0.2,0.07,0.3,0.07c0.25,0,0.49-0.14,0.61-0.38l1.86-3.79h10.34
			C34.83,32.98,35.71,31.57,35.12,30.36z"/>
	</g>
</g>
</svg>
